<?xml version="1.0" encoding="utf-8"?>
<!-- Generator: Adobe Illustrator 22.1.0, SVG Export Plug-In . SVG Version: 6.00 Build 0)  -->
<svg version="1.1" id="Layer_1" xmlns="http://www.w3.org/2000/svg" xmlns:xlink="http://www.w3.org/1999/xlink" x="0px" y="0px"
	 viewBox="0 0 196.5 301.4" style="enable-background:new 0 0 196.5 301.4;" xml:space="preserve">
<style type="text/css">
	.st0{opacity:0.4;}
</style>
<title>Michaels head</title>
<g id="Layer_2_1_" class="st0">
	<g id="Layer_1-2">
		<path d="M20.7,207.6c0.1,0.1,0.3,0.2,0.4,0.3l-0.1,0.1L20.7,207.6C20.6,207.7,20.7,207.7,20.7,207.6c-1,0.3-1.9,1-1.8,1.1l1.8,0.8
			l-1,1.3l1,1.1l-1.1,2.8c-0.4-0.1-0.1-1.4-1-0.7v1l1.4,0.2c-0.2,0.4-0.6,0.9-0.6,0.9c0.6,0.6,0.6,1.6,0,2.3c1,0.9-0.4,0.4-0.4,1
			c0.4,0.9,0.6,1.9,0.4,2.8c0,1.1-0.2,2.2-0.6,3.2c-0.6,1.5-1,3.2-1.1,4.8c-0.1,0.4-0.2,0.8-0.4,1.2c-0.2,0.7-0.4,1.3-0.5,2
			s0.3,1.5-0.4,2c0.7,0.5,0.1,1.5,0.5,2c0.9,1.3,0.2,2.4-0.3,3.5c-0.5,1-0.7,2.1-0.6,3.3c0,0.1,0.2,0.2,0.2,0.2l0.4-0.4
			c0.2,1.1,1.6,1.1,1.9,2.3l-2.1,1.1v2.2l1.5-1.1l0.2,0.3c0.5,0.6,1.1-0.8,1.6,0.1c0.1,0,0.3,0,0.4-0.1c0.9-0.6,0.5-1.6,0.5-2
			c-0.7-1.4-1.2-2.5-1.7-3.5c0.3-0.9,0.5-1.6,0.8-2.4c0.1-0.6,0.7-0.9,1.3-0.8c0.1-0.1,0.2-0.3,0.3-0.4l0.1,0.1l-0.4,0.3l-0.1-0.1
			c0,0,0,2.7,0,2.7l1.6,2.2h0.8l0.6,1.3l0.4,0.3l-0.4,0.1l0.8,1.1l-0.9,0.9c0.7,0.3,1.1,1.1,0.8,1.8c-0.1,0.2-0.2,0.4-0.4,0.5
			c-0.1,0.2-0.4,0.5-0.5,0.4c-0.7-0.3,0.2-0.5,0.1-0.7c-0.8-0.5-0.1-1.4-0.5-1.9h-1.2c0.1,0.6,0.1,1.2,0,1.8c-0.2,0.7-0.5,1.4-0.8,2
			c0.8,0.6,0,1.5,0.5,2.2h1.8l-0.5-1l1.2-1.2l0.4,0.5c0.1-0.1,0.2-0.3,0.3-0.4l0.1,0.1l-0.4,0.3l-0.1-0.1c0,0.8,0,1.6,0,2.4
			c1,0.5,0.1,1.1,0,1.8l0.8,0.5c0.1-0.1,0.5-0.3,0.6-0.3c0.3,0.2,0.8,0.5,0.8,0.9c-0.1,0.7-0.2,1.4-0.4,2l0.9,0.3c0,0.7,0,1.4,0,2.1
			s0.4,1.2,0,1.8c-0.7,1.3-0.4,2.8-0.5,4.2l1.6,0.1l0.3,0.9l1.8-1.9l-1.9-1.4l0.2-0.3l2.1,1c1-1-0.5-0.8-0.5-1.2l0.3-0.3
			c-0.2-0.5-1.2-0.7-0.7-1.6l1.1,1l1.2-0.6l-0.6,3.1c0.3,0,0.5,0,0.8,0.1c0.7,0.2,1.4,0.6,1.9,1.1c0.5,0.5,0.2,1.1,0.3,1.6
			c0,0.1,0.2,0.2,0.3,0.3l1.2-0.6l0.7-1.7c0.8,0.6,1.5,1.2,2.3,1.8c0.1,0.1,0.3,0.3,0.3,0.5c0,1,0.6,1.4,1.3,1.7l0.2-0.4l3,0.2
			c1.3,0.1,2,1.2,2.8,2h1.1c0.1-0.1,0.2-0.3,0.3-0.4l0.1,0.1l-0.4,0.3l-0.1-0.1c0.5,0.3,0.9,0.6,1.2,1c0.3,0.5,0.4,1,1.1,1.2
			l0.6-0.4l0.9,0.9l3.1-0.4l0.9,0.9l0.7-1c0.6,0,1.1,0,1.7,0c0.4,0,0.9-0.4,1.1-0.3c1,0.9,0.3-0.8,0.8-0.6c0.7,0.1,1.8,0.1,2.1,0.5
			c0.7,1,1.2,0.9,2.2,0.5c0.5-0.1,1.1-0.1,1.6,0.1c1.2,0.3,2.4,0.3,3.6,0c1-0.3,2-0.5,3-0.5c0.7,0.1,1.9,0.2,2,1.5
			c0,0.2,0.3,0.4,0.6,0.6l0.3-0.9c2.5-0.3,3.4,1.9,4.9,3h1.5l-0.5-1l2.1,0.9c0.7-0.1,1.4-0.5,1.6-0.3c0.7,0.6,1.5,0.3,2.3,0.4
			c1.1,0.1,2.3-0.3,3.3,0.4c0.1,0.1,0.4-0.2,0.7-0.4l0.4,0.4l-0.3,2l0.6-0.5l2.6,2.7l-1.5,1.5l3.1,2.2c-1.2,0.5,0.4,1.2-0.1,1.8
			l-1.2,0.4l2.6,0.8c-0.6,0.4-0.9,1.1-0.8,1.8c1.8,0.2,1.8,0.2,2,1.4l-0.8-0.4c0,0.5-0.2,1,0,1.3c0.4,0.8,0.5,1.6,0.4,2.5
			c-0.1,1,0.1,1.9,0.7,2.7h88.3l1.1-1.4c1,0.4,1.4,1.9,2.8,1.3v-1.7c0.5,0.4,0.9,0.7,1.3,1c0-0.3,0-0.5,0-0.8l0.2-0.2l0.3,0.9
			l-0.6,0.1c0.5,1.4,1.6,0.7,2.7,0.9c-0.1-1-0.2-1.8-0.3-2.7l1.1-1.1c0.2-1.1-0.4-2.3-1.4-2.8c0.5-0.6,0.6-1.6,0.2-2.3
			c-0.4-0.8-0.7-1.6-0.8-2.5c-0.1-1-1-1.3-1-2c0-2.1-1.1-3.9-1.8-5.9c-0.1-0.3-0.4-0.6-0.4-0.9c-0.1-1.2-0.4-2.5-1-3.5
			c-0.2-0.6-0.6-1.2-0.9-1.8c-0.3-0.6-0.5-1.3-0.6-1.9c-0.2-1-0.3-2.1-0.6-3c-0.7-2.5-0.7-4.3,0.8-6.1c0.6-0.6,0.7-1.4,0.5-2.2
			c-0.7-1.7-1.2-3.5-1.5-5.3c-0.4-1.6-0.3-3.3,0.2-4.8c0.5-1.1,1.4-2.3,0.5-3.6c-0.2-0.3,0-0.7,0-1.1c0-1.2-0.1-2.3,0-3.5
			c0.1-1.1-0.2-2.3-1-3.1c-0.3-0.5-0.6-1.1-0.8-1.6c-0.5-1.2-0.7-2.5-1.2-3.7s-1.1-2.4-0.1-3.8c0.3-0.4-0.1-1.2-0.2-1.8
			c0.8-0.3,1.4-0.9,1.6-1.6c-0.4-0.2-0.7-0.4-1.1-0.7c-0.6-0.4-1.2-0.9-1.9-1.3c-0.7,0.6-1.2,0-1.7-0.4c-0.6-0.5-1.1-1.1-1.7-1.7
			s-1.2-1.3-1.9-1.9c-0.3-0.3-0.7-0.5-1.1-0.7l-0.1-1.1c-1.8,0.4-3.2-0.5-4.8-1.1c0.3-1.4-0.6-2.4-1.2-3.4c-0.2-0.4-0.6-0.6,0-0.9
			c-0.9-1.2-0.4-2.9-1.7-3.9c0-1.1-0.9-2.2-0.2-3.6l0.6,0.7h2.2c-0.4-0.6,0.8-0.9,0-1.6c-0.4-0.3,0.2-1.3-0.6-1.8l1-0.8
			c-0.4-1.1-0.4-1.1-0.1-1.9l-0.8-0.3c0.9-0.6,0.4-1.4,0.5-2l-1.2-0.9h2.6l-1.2-1.1l0.8-1.3l-1.3-2l0.6-1c-1.3-0.4-2-1.6-1.9-2.9
			l-0.4-0.3c0.1,0,0.2-0.1,0.3-0.2c0.1-0.1,0.2-0.3,0.3-0.4l0.1,0.1l-0.4,0.3l-0.1-0.1c0,0.2,0,0.3,0,0.5h0.9l0.3-1.2l-0.9-1l0.9-1
			c-0.1-0.7-0.2-1.3-0.4-2c-0.2-0.6-0.6-1.1-0.8-1.6c-0.2-0.6-0.3-1.2-0.4-1.7l1.1-0.5l-1.1-1.2c-0.1-0.8,0.1-1.9-0.3-2.4
			c-0.5-0.7-0.8-1.5-0.7-2.4c0-0.1-0.1-0.2-0.2-0.3l-0.7-0.1l0.4-0.7l-0.9-1.8l-0.4-0.3l0.4-0.1c-0.5-1.3-1.6-2.4-1.4-4
			c0.1-0.4-0.3-0.9-0.4-1.3c-0.1-0.1-0.3-0.2-0.4-0.3l0.1-0.1l0.3,0.4l-0.1,0.1c0.2,0,0.4-0.1,0.4,0c0.5,0.4,0.9,0.9,1.5,1.4
			l-1.1,0.5c1.2,0.8,0.9,2.2,1.3,3.3l1.2,0.8c0.1-0.3,0-0.6-0.2-0.9c-0.4-0.3-0.7-0.8-0.6-1.3c0.2-1.3-0.4-2.5-0.2-3.8l-1-0.6
			c0.1-0.4,0.1-0.8,0.1-1.2c-0.4-1-0.6-2.1-0.8-3.2c-0.1-0.9,0.2-2-0.4-2.7c-0.7-1-1-2.2-0.9-3.4c0.2-0.9,0-1.9-0.4-2.7
			c-0.8-1-0.5-1.7,0.4-2.3c0-0.6,0-1.2,0-1.8c0-0.6,0.7-1.1,0-1.7c0.4-0.4,0.7-0.8,1-1.2l-0.6-1c0.4-0.2,0.9-0.4,0.9-0.5
			c0-0.6,0.5-1.1,0.4-1.5c-0.2-0.5-0.2-1,0.1-1.4c-0.8-1-0.3-2.2-0.4-3.3c-0.1-0.8,0.2-1.6-0.4-2.2c0.6-0.7-0.1-1.3-0.3-1.9
			c-0.3-0.6-0.3-1.4,0-2c0.7-0.9-0.7-1.3-0.3-2c0,0-0.6-0.4-1-0.8c1.2-1,1.2-2.4,1-3.7c-0.1-0.4-0.4-0.9-0.4-1.4
			c0.1-0.4,0.2-0.8,0.3-1.2c0-0.4-0.1-0.8-0.3-1.2c0.4,0,0.4,0.6,0.8,0.3c-0.2-0.7-0.3-1.3-0.4-2c0-0.6-0.6-1.2,0-1.8
			c-0.5-0.6-0.6-1.3-0.4-2c0-0.7-0.1-1.4-0.5-2c-0.5-1.3-0.8-2.7-0.9-4.2l1.2-0.2c-0.3-1.5-0.7-2.9-0.9-4.3
			c-0.1-0.4,0.3-0.6-0.3-0.9c-0.4-0.2-0.6-0.8-0.8-1.3c-0.1-0.2,0.2-0.4,0.3-0.5l-1.1-3.2c0-0.1-0.1-0.3,0-0.4
			c0.2-0.3,0.3-0.6,0.5-0.9l-1-0.5c0-0.2,0-0.4,0-0.7c0.1-0.3,0.3-0.6,0.4-0.9c-0.6-0.9-0.9-1.9-0.9-3c-0.1-0.3-0.1-0.7-0.2-1
			c-0.3-1.9-1.1-3.7-1.6-5.5c-0.9-0.5,0.3-0.9,0-1.4c-0.7-1.3-0.4-2.9-1.3-4.1c-0.3-0.3-0.4-0.7-0.4-1.1c-0.1-2.2-1-4.3-1.6-6.4
			c-0.2-0.7-0.4-0.9-1.2-1.7c-0.2-0.2-0.2-0.6-0.3-0.9c-0.1-0.1-0.3-0.2-0.4-0.3l0.1-0.1l0.3,0.3l-0.1,0.1c0.6-0.1,0.6-0.5,0.4-0.8
			c-0.5-0.6-1.1-1.1-1.7-1.7c0.4-0.5,0.9-0.9,1.6-0.6l0.6,1.7h2l1.6,1.3c0-0.3-0.1-0.5-0.2-0.8c-0.4-0.6-0.8-1.2-1.3-2
			c1-0.2,1-1.3,1.6-1.5l2.1,0.7l-0.7-2.2H160l1.2-2.5c-0.5-0.6-0.9-1.3-1.1-2c-0.1-1.3-1.2-2.4-2.5-2.6l-0.7,0.9
			c-0.6-0.3-1.1-0.7-1.7-1.1c-0.5-0.4-0.9-1-1.4-1.4c-0.6-0.4-0.9-1.1-0.9-1.8c-0.8,0-0.7-0.9-1.1-1.1l1.1-2.1l2.6,3.5l1.4-1.4
			c-0.2-0.3-0.8-0.8-0.8-1.2c0-0.8-0.7-1-0.9-1.6L156,51c-1.1-0.5-3.9-4-4.6-5.5l-1.2-0.1l0.5-1.3l-1.7-1.6c0.4-1.2-1.2-1-1.3-1.8
			s-1.4-0.5-1.3-1.4l0.3-0.7l-1.8-1.9l-0.4,0.3c-1.2-1-2.4-1.9-3.5-2.9c-0.2-0.2-0.2-0.6-0.3-1c-1.1-0.6-1.4-1.8-2.2-2.6
			c-0.6-0.6-1.4-1.1-1.3-2c-1.1-1.1-1.1-1.1-0.2-1.6c0.1,0.5,0.1,0.9,0.2,1.6c0.6-0.8,1.3-0.5,2.1,0c0.2-1-0.1-2.1-1-2.7
			c-0.1-0.1-0.7,0.1-1.2,0.3l-1.5-1.7c-0.9,0.1-1.9-0.2-2.6-0.8c-0.9-0.6-2-1.1-3.1-1.4c-1.2,1.1-1.6-0.3-2.4-0.7c0,0,0-0.4,0-0.5
			l1.6,0.3c-0.7-1-1-1.8-2.1-1.8c0,0.4,0,0.8,0,1.3c-0.2,0-0.6,0.1-0.6,0c-0.7-0.9,0.4-0.9,0.6-1.3c-1.3-1.5-1.6-1.5-2.8-0.9
			l-1.8-1.8l-3.5,0.7l-0.9,1l-1.3-0.7c-0.9-0.7-1.8-1.5-2.5-2.4c-0.2-0.2-0.5-0.5-0.8-0.7c-0.3-0.3-0.6-0.7-1-1
			c-0.5-0.5-0.7-1.4-1.4-1.6c-1-0.5-1.9-1.2-2.7-2.1c-0.4-0.4-0.8-1-1.1-0.9c-1,0.2-0.9-0.7-1.3-1c-0.6-0.4-1.2-0.8-1.7-1.3
			c-0.8-0.8-1.4-1.8-1.9-2.5h-1.8l1,1.4c-1.3,0.2-1.3,0.2-1.9,0c-1.4-0.5-2.7-1.2-4.1-1.8c-1-0.5-2.2-0.8-3.3-0.9
			c-1.6,0.1-3.2-0.3-4.7-1c-1-0.6-2.1-0.2-3.1-0.5c-1.1-0.4-2.3-0.7-3.4-0.7c-1.3,0.1-2.5-0.5-3.8-0.2c-1.3,0.5-2.8,0.4-4-0.3
			c-0.5-0.2-1-0.2-1.5,0c-1.1,0.7-2.2,0.4-3.3,0.4c-0.9-0.1-1.6,0.4-2.5,0.1c-0.9-0.1-1.8-0.2-2.8-0.1c-0.4,0-1-0.1-1.2,0.1
			c-0.6,0.6-1.3,0.1-1.8,0.3c-0.6,0.3-1.3,0.3-1.9,0c-0.3-0.2-0.8,0.1-1.2,0.1c-0.3,0.1-0.7,0.2-1,0.2c-1.5,0-3.1,0.3-4.5,0.8
			c-0.5,0-0.9-0.1-1.3-0.4c-0.6-0.3-0.9,1-1.5,0.3l-0.4-0.3l-1,1.6c0.5,0.5,0.8,0.9-0.2,1.1l-0.7-1.2l-0.8,1.3l-0.8-0.5l-1.2,1.2
			c-0.5,0-1,0.1-1.5,0.2c-1.9,1.1-3.6,2.4-5.2,3.8c-0.9,1.3-2.9,1-3.5,2.6c-1.5-0.2-2.1,1.2-3.1,1.9c-1.2,1-2.3,2-3.3,3.2V19
			l-2.2,1.6c0.3,1.1-0.9,1.4-1.2,2.1c-0.3,0.9-0.6,1.9-0.7,2.8l-2.4,2.7c-0.2,0.7-0.4,1.5-0.6,2.4c-0.1,0.9-0.4,1.7-0.9,2.5l0.9,1.8
			l-1,1.3c0.2,0.2,0.3,0.3,0.4,0.3c0.2,0.1,0.4,0.1,0.6,0.2c0.1,0.9-0.2,1.9-0.7,2.6c-0.3,0.5-0.5,1.1-0.6,1.7
			c-0.3,1.5-0.6,3-0.9,4.5c-0.3,0.7-0.4,1.5-0.4,2.2c0.2,1.5,0,3-0.8,4.3c-0.1,2.1-0.5,4.2-0.9,6.2C15,61.5,15.9,64.8,15,68
			c-0.1,0.2,0.7,0.4,0.1,0.8C15,68.9,15,69.3,15,69.6s-0.1,0.5-0.2,0.8c-0.2-1.2-0.3-2.3-0.3-3.5c0-1-0.4-2-1.1-2.6
			c-0.2,0.8-0.4,1.5-0.4,2.3c-0.1,0.8-0.2,1.6-0.2,2.3c0,0.8-0.4,1.5-0.1,2.3c0.1,0.8,0.1,1.6,0,2.3c-0.3-1.3-1.4-2-2.2-3v1.8
			l-0.8-0.7c-0.2,0.4-0.4,0.9-0.5,1.3c-0.1,1.9,0,3.8,0,5.7c0,0.4,0.1,0.7,0.3,1c0.6,0.8,0.8,1.9,0.6,2.9c0.1,0.9,0,1.8-0.1,2.6
			c-0.1,0.4-0.1,0.9,0,1.3c0.2,1.3,0.7,2.5,1.4,3.6c0.5,0.8,0.4,2,0.5,3.1c0.1,0.5,0,1.1,0.2,1.4c0.6,0.7-0.4,1-0.2,1.5
			c0.9,1,0.9,1,0.7,2.4l-0.8-0.4c0.2,0.7,0.5,1.2,0.4,1.7c-0.2,1.2,0.8,1.9,0.9,2.9c1.1,0.5,0.9,1.7,1.2,2.6
			c0.4,0.8,0.5,1.8,0.2,2.7c-0.1,0.6-0.1,1.3,0,1.9l1.4,0.2c-0.2,1.2,0.2,2.5,1,3.4c0.3,0.3,0.2,1,0.3,1.5c-0.4,0.3-0.7,0.5-1.1,0.6
			c-0.6-0.8-0.8,0.1-1.1,0.3c1.2,0.7-0.1,1.5,0,2.3c0.5,0.1,1,0.5,1.3,0.3c0.8-0.6,1,0.1,1.4,0.5l-1.5,1.1l1,1.1
			c-0.2,0.6-0.3,1.1-0.4,1.7c0.1,2.1-0.4,4.2,0.4,6.2c0,3.5,0,7,0,10.5c0,0.2-0.1,0.4-0.2,0.6c-0.4,1-0.4,2.1-0.1,3.1
			c0.1,0.2,0.3,0.5,0.2,0.6c-0.9,1-0.1,2.2-0.5,3.3c-0.8,0.2-1.3,1-1.2,1.9c0.1,0.9-0.6,1.7,0,2.5c-0.4,0.8-0.6,1.8-0.4,2.7
			c0,0.2-0.2,0.4-0.2,0.6c-0.2,1.4-0.5,2.9-0.8,4.5c1-0.7,1.7-1.6,2.1-2.8c0.5,0.3,1,0.6,1.4,0.9c0.1,0.1,0.1,0.4,0.2,0.6l-0.9,0.4
			l0.5,0.6l-1.3,2.5c0.6,0.7,0.6,1.7,0,2.5c-0.5,0.8-0.7,1.7-0.6,2.6c0,0.6,0,1.3,0,1.9l-0.8,0.3l-0.6,4.1l1.5,1.3l-1.3,0.8
			c-0.2,0.9-0.4,1.7-0.5,2.6c0,0.4,0.4,0.8,0.4,1.1c-0.1,0.4-0.2,0.9-0.4,1.2l1.3,0.2l-0.7,1.3H13c0.7,0.7,0.3,1.4,0.2,2
			c1,0.3,1.8,0.9,2.5,1.6c-0.6,1.3-0.3,2.5-0.2,3.8c0.9-0.7,1.4-1.9,1.2-3.1c0.7-1.4,1.4-2.7,2-4.2c0.3-1.2,0.6-2.5,0.8-3.8
			c0.2-0.2,0.6-0.5,0.7-0.9c0.2-0.9,0.3-1.9,0.5-2.9c0.1-0.3,0.2-0.7,0.4-0.9c0.6-0.6,0.7-1.5,0.1-2.1c0,0-0.1-0.1-0.1-0.1l0.9-0.9
			c-0.2-2.4,0.8-4.9,0.4-7.4c0-0.6,0-1.1,0-1.7c0.4-0.6,0.6-0.9,0.4-1.2c-0.3-0.8,0.2-1.6,0-1.8c-0.5-0.7,0.2-1.2,0.1-1.9
			c-0.1-0.5,0.4-1,0.7-1.5v2.3l0.9,0.4c0.3,0.9-0.7,0.5-0.8,0.9s0,1-0.5,1.3c-0.1,0.1-0.1,0.2-0.2,0.2c-0.1,0-0.2,0-0.3,0H24
			c0.5,1.1-0.2,1.4-0.6,1.8c0.4,1.3,0.4,2.7,0.3,4.1c0,1.3-0.5,2.5-0.4,3.8s-1,2.6-0.1,4.1c1-0.5,0.6-2.4,2.3-2.4
			c-0.2,0.4-0.4,0.7-0.4,0.9c0.4,1.7-0.6,3.1-1,4.7c0,0.3-0.3,0.5-0.3,0.7c-0.1,0.8-0.2,1.7-0.3,2.5c-1.1,0.4-0.6,1.5-0.9,2.3
			c-0.5,1.4-1.3,2.8-1.1,4.4l-0.7,1.8c-0.3,0.4-0.5,0.8-0.8,1.2c-0.5,0.7-0.8,1.6-1.1,2.4c-0.3,1.5-0.4,3.1-0.6,4.7l-1.1,0.7
			l0.4,0.5l-0.8,0.3v1.9l0.6,0.6c-0.1,0.7-0.2,1.2-0.2,1.7c0.1,0.1,0.3,0.2,0.4,0.3l-0.1,0.1l-0.3-0.4l0.1-0.1
			c-1.2-0.2-1.2,1-1.8,1.6l0.5,0.6c-0.7,0.8-1.1,1.9-1.2,2.9l-0.9-1.1l-1.1,1.1c0.8,0.6-0.4,1.2,0,1.8c-0.8,0.6-0.2,1.5-0.5,2.2
			l-0.5,0.5c-1.2,1-1.8,2.6-1.7,4.1c0,1.4-0.4,2.8-1.1,3.9c-0.1,0.2-0.2,0.4-0.3,0.5l0.9,1.1l-1.1,3.5l-0.8-2
			c-0.7,0.3-0.7,0.3-0.2,1c-0.3,0.4-0.5,0.8-0.8,1.2s-0.6,0.8-0.8,0.8c-1.4,0.1-1.9,1-2.3,2.1c-0.3,0.5-0.5,1-0.9,1.5
			c0.9,0.2,0,1.6,1.3,1.7l0.2-2l1,0.6c0.4-0.5,1.2-0.8,1.1-1.6c-0.3-0.2-0.6-0.5-0.9-0.8l1.7-1c0.6,1-0.8,1.1-0.7,1.9
			c0.3-0.1,0.6-0.1,0.9-0.1c0,0.8,0,1.4,0,2.1c0,0.6-0.1,1.3-0.4,1.8c-0.3,0.6-0.2,1.3,0.2,1.9c0.3,0.4,0.5,1,0.6,1.5
			c0.1,0.6,0,1.2-0.2,1.7c-0.2,0.3,0.4,1.2,0.2,1.4c-0.6,0.7-0.2,1.4-0.3,2.1c0,0.1,0.2,0.2,0.3,0.4l0.7-0.4
			c0.6,0.2,1.2,0.5,1.7,0.8c0.2,0.1,0.2,0.5,0.4,1.1c-0.5-0.4-0.6-0.7-0.8-0.7c-0.8,0-1.9,0.8-1.9,1.5s-0.8,0.5-0.9,0.9l1.1,0.5
			l-0.9,0.7l0.3,1.5c-1,0.3-1.5,0.1-1.5-0.7c-0.8,0-1.4,0-1-0.8c0.4,0.2,0.7,0.5,1,0.8h1c-1.2-0.7-1.5-2.1-2.8-1.7l-0.8,1l-0.8-1.4
			c-0.4,0.9-1.2,1.6-2.2,1.8l0.4,0.4l-0.3,1c0.9-0.2,0.7,1.1,1.6,1.1c0.1-0.3,0.1-0.5,0.2-0.7c0.1-0.2,0.3-0.4,0.5-0.6
			c1.1,0.4,2.1,1.2,2.7,2.2L6,249l0.5,1.6l-0.7,0.8c-0.2,0.7,0.1,1.4-0.3,2.1c-0.2,0.4,0.2,1.2,0.3,1.8c-1.8,0.9-1.8,0.9,0,2.7v1.8
			l1.9,1.4c0.1-0.1,0.3-0.3,0.5-0.4c0.3-0.1,0.6-0.2,0.9-0.3l-1.2-1.3l1.3-1.5c0-0.1,0.1-0.3,0.2-0.4c0.9-0.9,1.7-1.7,0.8-3.1
			c-0.2-0.3,0.1-0.8,0.4-1.1c0.6-1.2,1-2.5,1-3.8c0.1-1.5,0.4-3,1-4.4c0.8-2,1.3-4.1,1.4-6.2c0.1-2,0.8-3.9,0.5-6
			c0-0.2,0.2-0.5,0.3-0.7c0.5-0.8,0.8-1.7,0.9-2.7c0-1.2,0.7-2.2,0.5-3.3s0.4-2.2,0.4-3.3c-0.1-0.6,0.2-1.2,0.6-1.5
			c0.6-0.4,0-0.8-0.1-1.2l0.7-0.7c-0.1-0.4-0.2-0.8-0.3-1.2c0-1.5,0-3.1,0-4.6c0-0.8,0-1.8,0.5-2.2c0.9-0.6-0.4-1.3,0.3-1.8
			c0.1-0.1,0.1-0.4,0-0.6c-0.5-0.8-0.5-1.8,0-2.6c0.3-0.7,0.5-1.4,0.5-2.2c-1-0.8-0.2-1.6,0.1-2.2c0.7-0.9,1.1-2.1,1.1-3.2
			c0-1.5,0.6-2.9,1.6-4c0.3,1.1,0.4,2.3,0.3,3.5c0,0.7,0.1,1.3,0.3,2c-1.2,1.2-0.7,2.9-0.9,4.9l-1.3,0.9
			C20.4,206.7,20.5,207.2,20.7,207.6z M190.8,294.7c0.2,0,0.3,0.1,0.4,0.2l-0.1,0.1L190.8,294.7L190.8,294.7
			c-0.1-0.1-0.2-0.2-0.4-0.3l0.1-0.1L190.8,294.7L190.8,294.7z M8.9,245.9c0-0.2,0.1-0.3,0.2-0.4l0.1,0.1L8.9,245.9L8.9,245.9
			c-0.1,0.1-0.2,0.2-0.3,0.4l-0.1-0.1L8.9,245.9L8.9,245.9z M135.4,29.2c0.3,0.1,0.5,0.5,0.5,0.8h-0.3L135.4,29.2l0.4-0.1
			c-0.3,0-0.5-0.1-0.7-0.2l0.1-0.1l0.3,0.4L135.4,29.2z M120,105.2c0.1-0.1,0.1-0.3,0.3-0.4l0.1,0.1L120,105.2L120,105.2
			c0,0.3,0,0.6,0,0.9c1.5-0.5,1.9-0.2,2.7,0.3l-2.9,0.1l1.3-1.3c-1.4,0.7-1.7,0.4-2.3,0L120,105.2z M191.7,298.8
			c-0.1,0-0.2,0.1-0.3,0.2l-0.1-0.1l0.4-0.3l0.1,0.1c0-0.3-0.1-0.6-0.1-1l-1.4,0.6c-0.1-0.1-0.3-0.2-0.2-0.3
			c0.4-1.1,0.4-1.1-0.4-2.3c0.7,0.1,1.3,0.2,2,0.4c0.6,0.1,1.1,0.6,1,1.3c0,0.1,0,0.2-0.1,0.3C192.3,298,192,298.4,191.7,298.8
			L191.7,298.8z M24.5,219.5c-0.4,0.8,1,1.4,0.1,2.5c-0.5,0.6,0.2,1.7-0.4,2.5c-0.2,0.2-0.1,0.7-0.1,1c-0.1,1-0.2,2-0.3,3.1l0.7,0.1
			l-0.7,1.4c0.3,0.9,0.6,1.9,0.7,2.8c0.1,0.6-0.4,0.9-0.9,1c-0.3,0.1-0.6,0.2-1,0.3c-0.2,0.1-0.3,0.2-0.4,0.4l-1.4-1
			c0.6-1.2,1.9-2,2.2-3.5l-0.7-0.2c0-0.1,0.1-0.2,0.1-0.3c0.2-1.3,0.3-2.5,0.3-3.8c0.1-1-0.4-2,0.3-2.9c0-0.1,0.1-0.1,0.1-0.2
			C23.1,221.5,23.6,220.3,24.5,219.5z M12.7,219.5c0.7,0,1.3,0.2,1.8,0.7l-1,1.9l0.9,1.7c-0.2,0.4-0.3,0.9-0.4,1.3
			c0,0.4,0,0.9-0.4,1.1c0.4,0.4-0.9,0.7-0.1,1.2l-0.6,0.8c-0.4-0.9-0.9,0.3-1.4-0.1c0.2-0.8,0.7-1.6-0.2-2.4
			c-0.2-0.3-0.4-0.7-0.4-1.1c-0.1-1.4,0-2.8,0.5-4.2c0.1-0.5,0.8-0.9,1.3-1.4c-0.4-0.1-0.6-0.4-0.9-0.7
			C12.8,218,12.8,218.5,12.7,219.5L12.7,219.5z M98,183.4l0.3-0.4l0.2,0.4c1.2,1.6,1.2,1.6,1.3,2.6c-0.3,0-0.8-0.1-1,0.1
			c-2,1.6-4.2,0.6-6.3,0.4c-0.7-0.8-1.7-0.4-2.5-0.8c-0.9-0.2-1.7-0.2-2.6-0.1c-0.8,0-1.6,0-2.4,0c-0.8,0-1.5,0.1-2.3,0.3
			c-0.8,0.3-1.6,0.3-2.5,0.2c-1.4-0.2-2.8-0.2-4.2,0c-1.1,0.1-1.9-0.7-3.3-0.6l-0.5,0.5l-0.3-0.1c-1.4-0.5-2.8-1.1-4.2-1.5
			c-0.9-0.2-1.8,0-2.7,0.4c-0.8,0.3-1.6-0.1-2.5,0.3c-1,0.4-2,0.5-3,0.6c-0.6,0.1-1.1,0-1.6-0.2c-1.6-1-3-0.6-4.5,0.1
			c-0.1,0.1-0.2,0.1-0.4,0.1c-0.1,0-0.2,0-0.4,0l-0.1-1l2.2-1.4c0.4-0.9-0.1-1.6-1-2.3l1-1.2c-0.4-0.7-0.4-0.7,0.5-2.6
			c1.1,1.4,1.1,3.1,1.9,4.5c0.9,0.4,1.5-0.2,2.1-0.6c0.7-0.6,1.7-0.7,2.5-0.2c1,0.4,2,0.6,3.1,0.6c1.2,0,2.4,0.2,3.5,0.5l0.8-1.3
			l1,1.4l1.4-1.4l0.1,0.7c0.4-0.1,0.9-0.2,1.1-0.5c0.9-0.9,2.2-1.4,3.5-1.2c0.9,0,1.8,0,2.7,0c1-2.1,2.9-1.7,4.9-1.8l1.1,1.4
			c0.8-0.3,1.7,0,2.2,0.7c1-0.1,1.8-0.5,2.4-0.2c1.1,0.4,2.2,0.5,3.4,0.4c0.8,0,1.5,0.3,2.1,0.8c0.8,0.8,1.8,1.4,2.2,2.6
			C97.3,183.4,97.8,183.4,98,183.4L98,183.4z M106.8,186.5c-0.2,0-0.5-0.1-0.7,0c-0.2,0.2-0.5,0.4-0.7,0.6l0.9,0.4
			c-1.1,0.9-1.3,1-1.9,0.3c-0.2-0.2,0.1-0.7-0.1-0.9c-0.4-0.3-0.8-0.5-1.3-0.7l1-0.3v-2.9c-0.2-0.2-0.3-0.4-0.5-0.5
			c-1.5-0.9-1.6-2.6-2.4-3.8c-0.2-0.3-0.2-0.7,0.1-1c0.1-0.1,0.3-0.2,0.4-0.2c0.4-0.1,0.7-0.8,0.9-1.3c0.1-0.4,0.1-0.8,0.1-1.1
			c-0.5-0.7-0.9-1.7-1.7-2.2s-0.9-1.5-2-1.9l-2.2-0.3l-0.2,0.7l-2.9-2.9V167l-3.4-3.1c0.3-0.7,0.3-0.7-0.3-1.4l-0.9,0.4l-0.8-1.6
			l1.8-1.3c-0.3-1.1-1.5-1-2.2-1.7s-1.7-0.6-2.6-0.9c-0.1,0.1-0.2,0.3-0.3,0.4l-0.1-0.1l0.4-0.3l0.1,0.1c-0.3-0.6-0.3-0.7-0.1-1.6
			c-1.7-0.3-1.7-0.2-2.5,0.4c0.3,1.2,1.1,2.2,2.2,2.7l-1.1,0.6c0.3,1.4-0.3,2.7,0.5,3.8c-0.4,0.7-0.1,1.7-0.9,2.2
			c-0.7,0.4-1,1.2-0.9,2h-0.8c-0.1,0.1-0.2,0.3-0.3,0.4l-0.1-0.1l0.4-0.3l0.1,0.1c0-0.3,0-0.5,0-0.8h-2.2l-2.5-2.5
			c-0.3,1.3-2,0.6-2.2,2l-1.6-1.7l-1.6,1.5l0.3,2.8c-1,0.2-2-0.5-2.2-1.5c0,0,0,0,0-0.1c-0.1-0.8-0.7-1.6,0-2.5l-0.9-0.4v-1.4
			c-0.6-0.9-1.7-1.4-2-2.5c-0.8-0.2-1.7,0.3-1.9,1.1c-0.7,1.3-2,2.3-2.6,3.8c-0.3,0.6-1,1.6-2.1,0.9l-1.7,1.2l-0.8,0.5
			c0.1,0.1,0.3,0.2,0.4,0.3l-0.1,0.1l-0.3-0.4l0.1-0.1c-1.5,1.4-1.6,1.6-0.9,3.4l-1.2,0.2c-0.2,0.6-0.4,1.1-0.7,1.9l-0.6-1.2
			c-0.9,0.1-1.4,1.4-2.4,0.9v0.9l-0.9-0.5l-1.6,1.1l-0.3-0.9c-0.1,0-0.3,0.1-0.3,0.1c0,0.9-1,1.2-1.4,1.8c-1.5,1.5-1.3,3.2-1.2,5
			c0.7,0.5,0.2,1.2,0.3,1.8c0.2,0.6,0.4,1.2,0.4,1.8c-0.1,0.6,0.8,1.1,0,1.6c0.3,0.7,0.7,1.5,0.4,2.2c-0.4,0.9-0.5,1.9-0.4,2.9
			c0,0.9,0,1.9,0,2.9c1.1,0.3,2.2-0.3,2.5-1.4c0.4-0.6,0.8-1.3,1-2c0.1-0.5-0.3-1.1,0.1-1.6l0.1-0.2c0.9-0.5,1.3,0.2,1.6,0.5
			c0.8,0,1.7-0.4,2.1,0c0.8,0.8,1.2-0.4,1.9-0.2c0.7,0.1,1.5,0.1,2.2,0c0.6,0,1.4-0.4,1.7-0.2c0.8,0.7,1.2-0.6,2-0.3
			c0.6,0.2,1.3-0.1,2.3-0.2c0.3,0.1,0.9,0.4,1.5,0.7c0.4,0.2,0.5-0.8,1-0.1c0.2,0.2,0.8,0.1,1.2,0.1c1.4,0,2.8,0.3,4.1-0.8
			c0.2-0.2,0.8,0,1.2,0.1c1.2,0.5,2.6,0.8,3.9,0.6c0.5-0.1,1-0.2,1.4-0.4c0.7,0.2,1.3,1.1,2.2,0.4c0.2-0.1,0.6,0.2,0.9,0.4
			s0.5,0.4,0.9,0.6l0.5-1l0.5,0.5c0.8-0.2,1.6-1,2.5-0.1c0.2,0.1,0.4,0.2,0.6,0.1c0.7-0.2,1.3-0.6,2-0.4c0.4-0.9,1.3,0.6,1.7-0.3
			c0-0.1,0.5-0.1,0.7,0c0.6,0.4,1.5,0.4,2.1-0.1c1.8,1.6,3.6,0.6,5.3-0.5c0.4,0.9,0.4,0.9,1.2,0.5l1,1.3l1-0.5
			c0.1-0.1,0.2-0.3,0.3-0.4l0.1,0.1l-0.4,0.3l-0.1-0.1c0.5,1.5,1.7,0.7,2.7,1.1l-0.5-1.2c0.8-0.5,1.8-0.3,2.4,0.3
			c0.7,0.6,1,1.6,0.6,2.5l-0.6,0.1c0,0.1-0.1,0.3,0,0.3c0.7,0.4,0.6,1.3,0.9,1.8c0.6,0.7,0.1,1.1-0.2,1.7c-0.1,0.2,0,0.6,0,0.9
			c0,1.8-0.6,3.5-1.6,5c-0.3,0.7-0.6,1.3-0.7,2.1c-0.8,0.1-1,0.3-2.8,1.8l-0.6-0.5c-0.8,0.7-2.7,0.3-2.3,2.3
			c0.1,0.1,0.3,0.2,0.4,0.3l-0.1,0.1l-0.3-0.4l0.1-0.1c-0.3,0.1-0.8,0.2-0.9,0.4c-0.6,1.1-0.9,2.4-0.9,3.6c0.1,0.1,0.3,0.2,0.4,0.3
			l-0.1,0.1l-0.3-0.4l0.1-0.1c-1.1-0.6-2.5-0.5-3.6,0.3c-0.2,0.6,1,1.2,0,1.8c-0.1,0,0,0.3-0.1,0.4c-0.5,0.4-1.4,0-1.6,0.8
			c-0.2,0.5-0.5,1-1,1.2l-2.1-2.5c0.8-1-0.7-2,0-3.1l-2.4-2l0.4-2.5l-1.2-1.2l0.5-0.6c-0.7-1.6-2.5-1.9-3.3-3.2h-3.5
			c-0.3,0.8-0.7,1.6-1.2,2.4c-0.2,0.3-0.9,0.2-1.4,0.4l-2.1-2.2l-0.7-0.1l-0.3-0.7c-0.9-0.3-1.9,0.2-2.7-0.4l-1.2,1.6l-1.1-0.6v1.4
			l0.9-0.4l0.8,1.2c0,1.1-0.9,1.5-1.5,2.1c-0.7,0.6-1.6,1-2.5,1.3c-0.2,0.8,0.3,1.7,1.1,2c0.2,0.3,0.3,0.7,0.2,1.1
			c-0.7,0.6,0,1,0.2,1.6l-0.9,0.9v2.4c-1.4-0.4-1.9,1.5-3.4,0.8c-0.2-0.3-0.3-1.4-1.2-0.3c-1.1-1.3-3-1.7-4.5-1
			c-0.5-0.4-1.7-0.5-1.4-1.8c-0.7-0.5-1.1-1.3-0.9-2.2l-1.3-0.8c0.6-0.9,0.5-1.9,1.5-2.5c0.7-0.6,1.4-1.2,2-1.9
			c-0.6-1.9-2.2-2.3-3.8-3c-1.1-0.5-2.4-0.5-3.3-1.6l0.9-1.7c-0.5-0.5-1.3-0.6-1.8-0.1c-0.1,0.1-0.1,0.1-0.2,0.2l-0.2-1.4l0.9-0.4
			c-0.1-0.1-0.3-0.3-0.4-0.4c-0.1-0.2-0.1-0.4-0.1-0.6h-1.1c-1,2.1-0.5,4.3-0.6,6.5c-1.3,0.1-1.2-1.1-1.7-1.7c-0.1-0.1,0-0.3,0-0.4
			c-0.1-2.3-0.2-4.6-0.5-6.8c-0.1-1.3-0.4-2.6-0.7-3.9c-0.1-0.7-0.1-1.4,0-2.1c0-0.4,0.4-0.9,0.2-1.2c-0.9-2.2-0.1-4.6-0.4-6.7
			c-0.5-0.8-0.9-1.6-1.2-2.5c-0.1-0.9-0.1-1.8,0-2.7c-1-0.5-0.8,0.4-1.1,0.8c-1.2-0.8-2.6-1.1-4-0.9c-0.9,1.1,0.8,2.1,0.1,3.3
			c-0.5,0.3-1.3,0.6-1.2,1.7c0.1,0.8-0.1,1.7,0.5,2.4c-0.7,0.9-0.3,1.9-0.5,3c-0.5-0.5-0.8-1.2-0.9-1.9c0-1.7,0.2-3.4-0.8-4.9
			c-0.1-0.3-0.1-0.6,0-0.9c0.2-1.3,0.2-1.4-0.8-2.1c-0.2-0.2-0.4-0.3-0.5-0.5c-0.1-1,0.1-1.9,0.4-2.8c0.4-0.8-0.4-2,0.5-2.9
			c-0.2-1.3,0.2-2.5-0.3-3.8c-0.3-1.3-0.5-2.6-0.6-3.9c-0.1-0.7,0.3-1.1,1.1-1.3l0.3,0.8c1.4,0,1.7-0.2,1.7-1.2c0-0.5,0.2-1-0.3-1.4
			c-0.1-0.2-0.2-0.4-0.1-0.6c0.1-0.9,0.6-1.9,0.3-2.6c-0.3-0.8-0.4-1.7-0.3-2.5c0-1.8,0.1-1.8-0.5-3c-0.2-0.4-0.2-0.9-0.5-1.3
			c-0.1-0.2-0.5-0.4-0.9-0.7c0.4-0.8-0.6-1.6-0.1-2.8c0.4-0.8,0.1-2,0.1-3c-1.2-0.1-1-1.3-1.2-1.9s0.2-1.4,0.3-2l-1.7-1.7
			c0-0.8-0.1-1.3,0-1.6s0.5-0.6,0-1c0.5-0.3,0.5-0.9,0.4-1.4s-0.3-0.8-0.4-1.1c0-0.5,0-1,0-1.4l-1.3-1v-2.3
			c-0.4-0.1-0.9,0.2-0.9-0.5c0-0.2,0.2-0.3,0.4-0.4c0.7-0.1,0.5,0.5,0.5,0.9c0.7,0.6,1.6,0.4,2.6,0.4v-2.5l1.2-0.1
			c0.1-0.5,0.4-1,0.6-1.5c0.3-0.4,0.6-1.1,1.4-0.4c0.2,0.2,0.9-0.2,1.6-0.4c0-0.2,0-0.5,0-0.7c0.1-0.3,0.2-0.5,0.4-0.8l-1.2-0.2
			c0-0.2-0.1-0.5,0-0.6c0.7-0.7,0.5-1.2-0.1-1.8s-0.5-1.3,0.3-1.8l2.2,1.1l6.8-2.2l0.1-1h2.1l0.1,1.2h1.1l0.4-0.9
			c0.2,0.1,0.5,0.1,0.6,0.3c0.4,0.5,0.7,1,1,1.5l-0.6,1.1l2.3,2c0.3-0.2,0.6-0.3,1-0.4c0.4,0,0.9,0.4,1,0.2c0.4-0.5,0.6,0.1,0.8,0.1
			c0.3-0.1,0.6-0.1,0.9-0.2c0.1-1.1,1.6-2,0.9-3.6h1.6c0.2-0.8,0.7-1.4,1.4-1.7l2,0.7l0.8,0.2c0.1-0.3,0.3-0.5,0.4-0.8
			c0.3-0.2,0.6-0.4,1-0.5l-0.6-1.6c2.1-1.9,2.2-4.2,1.3-6.8h1.6c0.3-1.4,0.2-3,0.9-4c0.9-1.3,0-2.9,1-4c-0.2-0.7-0.8-1.1-1.5-0.9
			c0,0,0,0-0.1,0l-0.4,1L68.1,96l-0.8,0.5c-0.5-0.3-1-0.8-1.5-0.8c-1-0.1-1.5-1.6-2.9-0.7c0-1.3-0.1-2.4-1.3-2.9
			c-1.1,0.5-2.1,0.8-3.3-0.2c-0.9-0.6-1.9-0.9-3-1c-0.3-0.1-0.8,0.4-1.2,0.6v0.9c-0.1,0.1-0.2,0.2-0.4,0.2c-0.7-0.1-1.5,0.3-2-0.4
			c-0.1-0.1-0.5,0.2-0.7,0.2s-0.7,0.2-0.8,0.1c-0.7-0.7-1.4-0.1-2.1,0c-0.5,0.2-1,0.3-1.6,0.4c-0.5,0-1.2-0.5-1.5-0.3
			c-1.2,0.6-2.5,0.4-3.8,0.4c-0.9,0-1.8-0.1-2.7-0.5c-0.6-0.4-1.2-0.9-1.6-1.5c-0.3-0.4-0.5-0.9-0.7-1.4h-0.8
			c-0.8-1.3-0.8-1.3-2.1-1.8c0,0.9,0.9,1.7,0.2,2.7c-0.2-0.2-0.4-0.4-0.6-0.6c-0.6-0.8-1.2-1.6-1.8-2.3c-0.2-0.2-0.5-0.2-0.9-0.4
			c0.2-1.2-0.3-2.5,0.5-3.8l-0.9-1.8c1.3-1-0.1-2.1,0.1-3.3l0.7-0.3c0.1-0.1,0.1-0.3,0.1-0.4c-0.1-0.8,0.2-1.7-0.4-2.5
			c-0.2-0.2,0.4-1.1,0.3-1.2c-0.7-0.7,0.5-1,0.2-1.7c-0.3-0.6-0.2-1.4,0.4-1.8c0.1,0-0.2-0.6-0.4-0.9c-0.5-0.6,0.7-1,0.1-1.7
			c-0.3-0.6-0.2-1.3,0.2-1.8c0.1-0.2-0.2-0.7-0.4-1.3c0.2-0.2,0.4-0.4,0.6-0.6c0.7-0.5,1-1.4,0.9-2.3c0-0.2,0.1-0.4,0.2-0.6
			c0.1-0.8,0.8,0.8,1-0.3c0-0.4,0.5-0.7,0.7-1.1c-0.4-0.9-0.2-1.5,1-2.1c0.2-1.6-0.5-3.6,1.3-4.8c-0.2-0.6-0.7-1-0.1-1.7
			c0.7-1.2,1.3-2.5,1.6-3.9l0.6,0.5c0-0.4,0.1-0.6,0.1-0.9c0-0.5-0.2-1.1,0.7-1c0-0.9,1.1-1.2,1.1-2.2c0-0.7,0.8-1.3,1.2-1.9
			s0.8-1,1.3-1.6h1.8l0.6-1.6c0.1-0.1,0.1-0.1,0.2-0.1c1.1,0.1,2.3-0.2,3.2-0.9c1-0.7,2.3-0.8,3.2-1.8c0.7,0.7,1.5,0.5,2.4,0.3
			c0.3-0.1,0.7-0.2,1-0.3c0.9-0.3,1.8-0.3,2.8-0.1c1.3,0.5,2.8,0,3.4-1.3c0.6-0.7,1.5-1,2.4-0.7c1,0.4,2.3,0,3,1.2
			c0.2,0.3,0.7,0.3,1.1,0.5c1.1-0.1,1.3-1.3,2.2-1.9l0.7,1c0.6-0.2,1.3-0.4,2-0.5c0.6,0,1.2-0.7,1.8,0c1.1-0.3,0.7,1.1,1.6,1.2
			l1.3-0.7c1.3,0.6,2.2,2,4,2.1l0.3-0.7c0.1,0,0.2-0.1,0.3-0.2c0.7-0.4,1.1,0.9,1.9,0.2c0.4-0.4,1.4-0.1,2.1-0.2
			c0.7,0.1,1.4-0.1,2-0.4c0.5-0.2,1.2-0.2,1.7,0c0.7,0.3,1.4,0.3,2.1,0c0.8-0.3,1.3,0.3,1.8,0.9c0.7-0.7,1.2-0.6,1.8,0
			c0.7,0.4,1.5,0.3,2.2-0.1l0.3,0.9c1.6-0.2,3.2,0.4,4.8-0.5l1.1,1l0.7-0.5c0.6,0.5,1.2,0.9,1.9,1.2c0.4,0.2,0.6,0.3,0.6,0.7h1.3
			l0.9,0.7l0.8-0.5c0.2,0.3,0.4,0.6,0.6,0.9c0.3,1.3,1.4,2.2,2.7,2.2c0.2,0,0.4-0.2,0.7-0.4c0.5,0.5,1,1.3,2.1,0.5
			c0.8-0.6,1.6,0.5,2.5,0.9l-0.5,0.6c0.3,0.2,0.6,0.6,0.8,0.6c0.7-0.1,1,0.4,1.5,0.8c1.5,1.2,3.3,2.1,5.2,2.5v1.8
			c0.7,0.9,1.6,1.5,2.7,1.8c0.3,0,1,0,1,0.9c0,0.3,0.7,0.6,1.2,1c-0.2,0.4-0.3,0.9-0.4,1.4c0.1,0.5,0.3,0.9,0.5,1.3
			c0.2,0.4,0.3,0.8,0.3,1.2c0,1.2,0,2.3,0,3.5l1.2,1.2c-0.2,0.3-0.3,0.6-0.3,0.9c0.1,0.3,0.2,0.6,0.4,0.9c0.2,0.2,0.3,0.5,0.4,0.7
			c0.1,0.6,0.2,1.1,0.2,1.7c0,0.2-0.1,0.4-0.1,0.5c0.7,0.9,1,2,0.7,3.1c0,0.3,0,0.6,0.1,0.8c0.3,0.6,0.5,1.3,0.7,1.9
			c0,0.7,0,1.5,0,2.2c0.1,1.1,0.2,2.2,0.3,3.4l-0.7-0.5l0.6,2.1l-0.9,0.3c-0.3,1,0.1,2.1-0.3,3.3l0.9,2l-1.1,0.9
			c0.1,0.1,0.2,0.2,0.2,0.2c0.6,1.5,0.1,3.1,0.3,4.7c0.1,0.5-0.3,0.9-0.4,1.4s-1,0.8-0.3,1.5c0.3,0.3-0.5,0.8,0.2,1.1
			c0.1,0.1,0,0.7,0,1c0.3,0.2,0.4,0.5,0.4,0.8h-0.3l-0.2-0.9h0.4h-1.1l0.5,1.2c-0.3,0-0.8,0.1-0.8,0.1c-0.5-1.2-1.5-1.3-2.6-1.2
			l-1.5-2.2l-0.8,1.4c-1.2-0.9-2.5-1.8-4.2-1.7c-0.8,0.1-1.6-0.4-1.9-1.2c-1.1,0.1-1.6-0.8-2.2-1.4c-1.4-0.2-2.7,0.3-4-0.3l-0.7,1.9
			l-0.9-1.4c-0.7,0.2-1.3,0.8-1.6,0.6c-0.7-0.4-1.2-0.1-1.9,0c-1.9,0.2-3.8,0.3-5.7,0.5c-0.4,0-0.9,0-1.2,0.3
			c-0.6,0.6-0.8-0.3-1.6-0.2l-0.2,0.9c-0.7,0-1.5,0-2.2,0c-2.2-0.3-4.2,0.7-6.4,0.4l-0.2,0.8c-0.8,0-1.6,0.4-2.3-0.3
			c-0.7,0.5-1.2,1.2-2.2,1.4c-1,0.4-1.6,1.3-1.5,2.3c0,0.7,0,1.3,0,2.2l1.1,1l0.8-0.5l0.4,1.1h3.7c0.2,0.3,0.4,0.6,0.5,0.9
			c0.2,0.6,1.2,0.8,0.9,1.6c-0.2,1-0.6,1.9-1.2,2.8c-1,0.9-0.9,2.3-1.8,3.3c-0.3,0.3,0.1,0.9,0.8,1.6l1.1-0.6
			c0.7,0.9-0.3,1.1-0.6,1.7l1.5,1c0.7-0.1,1.8,0.4,2.9-0.4c0.2-0.2,0.9-0.2,1,0c0.4,0.7,1.1,0.2,1.6,0.6s0.9-0.3,1.5-0.2
			c0.6,0.1,1.2,0.1,1.8,0c2.8-0.2,3.1,0,5.1,1.8c0.5,0.2,0.8-0.9,1.5-0.2c0.3,0.2,0.8,0.3,1.2,0.2c1-0.3,1.7,0.9,2.6,0.3
			s1.7-0.1,2.6-0.4l0.2-0.7c1.2-0.2,2.4-0.4,3.6-0.5c0.3,0,0.6,0.5,1,0.8l0.8-0.8l2.6,1.9c0.4-0.7,0.8-1.3,1.4-1.4
			c0.7,0,1.3,0,1.9,0.2c-0.1-0.4-0.4-1-0.3-1.3c1-1.5,0-2.3-0.9-3.3c1-0.9,0.2-1.8-0.1-2.8l2.9-0.6l2.4,1.2l-0.7,0.7
			c-0.2,0.6,1.3,0.7,0.4,1.4c0.3,0.6,1,0.9,1.6,0.7c0.5-0.2,0.9-0.8,1.4-1.3c0.7,0.2,1.6,1,2.6-0.2c0.5,1.3,0.9,2.6,1.3,4
			c0.2,0.9,0.2,1.9,0.4,2.9c0.3,2,0.5,4.1,0.5,6.2c-0.1,1.1,0,2.3,0.4,3.4c0.3,1,0.2,2-0.4,2.9c0.9,0.9,0.2,1.9,0.4,2.9
			c-0.8,1.2-0.4,2.5-0.4,3.8c0.1,1.8-0.2,3.5-0.9,5.1c-0.1,0.3-0.1,0.6,0,0.9c0.1,0.8-0.3,1.5-1,1.9c1.4,0.8,0.8,2,1,3.1l-0.9,0.9
			c0,1.7-0.2,3.5-0.7,5.1c-0.3,1.6-0.9,3.3-0.6,5c-0.3,0.2-0.9,0.4-0.9,0.5c0,0.8-0.2,1.4-1.2,1.5c-0.5,0.1-1.1,0.5-1.6,0
			c0,0-0.1,0-0.2,0.1l0.3,1.9l-0.7-0.6c-0.3,0.7-1,1.3-0.2,2.2c0.1,0.1,0,0.3,0,0.4c0.1,0.8-0.6,1.4-0.1,2.3
			c0.4,0.6,0.1,1.6,0.1,2.4c-1.4,0.7-1.4,0.7-0.9,1.8l-1.1,0.9l-1.5-0.3c0.5,1.9,0.4,1.9-0.5,4c-0.2,0.5-0.4,1-0.6,1.6
			c-1.5,0.3-2.2,1.7-2.8,3c-0.2,0.6-0.5,1.2-0.9,1.6c-0.3,0.4-0.5,0.8-0.6,1.3c-0.1,0.9-0.8,1.7-1.7,1.9c-0.2,0-0.3,0-0.5,0
			c-0.9-0.1-1.3,0.1-1.3,0.8c0.1,0.6,0.2,1.3,0.3,1.9c-0.3,0.6-0.9,0.8-1.5,0.6c-0.2-0.1-0.3-0.3-0.5-0.3c-0.3,0-0.6,0.1-0.9,0.2
			c0.3-0.9-0.9-0.5-1-1.3c-0.1-1.2-1.1-2-1.6-3c0,0-0.1,0-0.4,0l-0.3,1.9c-1.6-0.8-1.7-2.5-2.5-3.6l-1.3-0.4c0-0.2,0-0.3,0-0.3
			l0.9-0.3l-0.6-1.1c-0.6,0.4-1.4,0.5-2.1,0.4v1l1.2-0.5h0.1c-0.3,1,0.9,1.4,1,2.2c0.1,0.3-0.1,0.7-0.5,0.8
			c-0.4,0.2-0.6,0.8-0.8,1.3c-0.1,0.1,0.2,0.4,0.4,0.7l-0.9,0.9l1.1,0.5l1.1-0.4c0,0.2,0,0.3,0,0.5c-0.5,0.8-0.9,1.5-1.4,2.2
			L106.8,186.5z M51.4,183l0.1,1.4l1.1,1.1c-0.5,0.1-0.7,0.2-0.9,0.1s-0.3-0.3-0.4-0.3l-1.4,1.7l-1.4-0.6c-0.9-1.7,1-2,1.6-3
			c0.1-0.2,0.4-0.3,0.7-0.4C51,183,51.2,183,51.4,183z M40.6,189.3c-0.7-2.4,0.6-3.9,1.9-5.6c0.1,0.4,0,0.7,0.1,0.8
			c0.4,0.6-1.1,0.9-0.3,1.5s-0.4,0.7-0.2,1.2C42.5,188.4,41.6,188.8,40.6,189.3z M117.2,110.3c-0.2,0.3-0.5,0.5-0.6,0.8
			c-0.1,0.3-0.1,0.5-0.2,0.8c-0.4-0.2-0.9-0.3-1.3-0.4c-0.3,0-0.7,0.2-1.1,0.4v-1.1l1.6-1.6L117.2,110.3z M23.8,238.5v1.1l1.2,0.2
			l-1,0.6l0.6,0.8l-1.3,0.7c0-0.4,0-0.9,0-1.3c-0.1-0.3-0.4-0.6-0.5-0.9s-0.3-0.8-0.5-1.3L23.8,238.5z M9.8,236c2,1.6,2,1.6,1.1,2.8
			l-1.1-0.5V236z M49.7,191.8l-1.6-0.2c0.4-0.5,0.7-0.8,0.9-1.2s0.3-0.6,0.5-0.9l0.5,0.6c-0.1,0.2-0.2,0.5-0.3,0.8
			C49.7,191.2,49.7,191.5,49.7,191.8L49.7,191.8z M23.4,149.1v-4.7c0.4,0.7,0.5,1.5,0.4,2.3c0,0.8,0,1.6,0,2.4L23.4,149.1z
			 M187.8,295.1c0.1,0.2,0.2,0.3,0.3,0.5c0.2,0.2,0.5,0.4,0.7,0.6c-1,0.6-1.6,0.2-2.1-0.8L187.8,295.1z M160.2,64.8l-1.3,0.8
			l-0.7-0.7l0.8-0.3l-0.4-1c0.2,0,0.4-0.1,0.4-0.1C159.4,64,159.8,64.4,160.2,64.8z M10.4,235.6c-0.2-1.4-0.2-1.4,0.8-2
			C11.3,234.4,11.3,234.4,10.4,235.6z M22.9,151.6l0.7-0.7c0.2,1.3,0.2,2.7,0.2,4C22.9,153.6,23.9,152.3,22.9,151.6L22.9,151.6z
			 M103.5,7.1h-1.4L102,5.7C102.6,6.2,102.9,6.6,103.5,7.1z M24.1,244.5h-0.7v-1.3C24.6,243.2,24.1,244,24.1,244.5z M151,50.3
			c0.4,0.5,1.1,0.7,1,2l-1.4-1.6L151,50.3z M107.1,110.7l-0.9-1.8l0.9-0.3V110.7z M134.3,99.7l-1,0.2c0-0.2-0.1-0.5-0.1-0.7
			c0-0.2,0.1-0.4,0.1-0.8L134.3,99.7z M9.6,244.7c-1-1.1-1-1.1,0-1.5V244.7z M26.4,213.7v-1.2l0.8,0.1l-0.4,1.2L26.4,213.7z
			 M14.4,80.7L13.5,79C14.4,79.4,14.4,79.4,14.4,80.7z M47.4,110.3l-1-1.4l1-0.2V110.3z M35.3,159.6V158h0.3l0.1,1.6L35.3,159.6z
			 M9.8,231.6c-0.2-0.3-0.4-0.5-0.5-0.7s0.2-0.3,0.3-0.4c0.2,0.1,0.4,0.3,0.5,0.5C10.1,231,10,231.3,9.8,231.6z M13.1,214.5
			c-0.1-0.2-0.3-0.5-0.3-0.8c0-0.1,0.4-0.4,0.4-0.3c0.2,0.1,0.3,0.3,0.4,0.5C13.6,214,13.4,214.2,13.1,214.5z M83,224.6
			c0.3,0.3,0.5,0.5,0.5,0.6c-0.1,0.2-0.2,0.4-0.4,0.5c0,0-0.4-0.2-0.4-0.3C82.7,225,82.8,224.8,83,224.6z M62.3,171l-0.7-1.5
			l0.7-0.1V171z M19.8,247c-0.8,0.4-0.9,0.1-0.9-0.9L19.8,247z M25,236.6v1.4h-0.2v-1.3L25,236.6z M27.9,260.2l1-0.5
			C29,260.3,29,260.3,27.9,260.2L27.9,260.2z M97.4,172.2l1.1,0.5C97.2,172.8,97.2,172.8,97.4,172.2L97.4,172.2z M99.2,174.6
			c-0.7,0.2-0.8-0.1-0.5-1L99.2,174.6z M65.5,171.2c-0.7-0.1-1-0.1-1.1-0.3s-0.1-0.4-0.1-0.9L65.5,171.2z M16.5,155.2l0.6,0.9
			C16.5,156.2,16,156.4,16.5,155.2z M115.2,103.7c0.1-0.1,0.2-0.2,0.3-0.3c0.2-0.1,0.4-0.1,0.6-0.2c0,0.2,0,0.4-0.2,0.6
			s-0.4,0-0.6,0S115.3,103.7,115.2,103.7z M24.5,154.4v0.9h-0.2v-0.9H24.5z M184.3,228.4h0.7v0.2l-0.7,0.2L184.3,228.4z M84.3,222.2
			v0.7h-0.2l-0.2-0.7L84.3,222.2z M72.4,169.4v0.9h-0.2v-0.9H72.4z M69.8,171.1v0.9h-0.2v-0.9L69.8,171.1z M26,215v-0.7h0.2l0.2,0.7
			H26z M9.6,240.5H8.9v-0.2l0.7-0.2L9.6,240.5z M22.4,242v0.7h-0.2L22,242H22.4z M92.9,281.5v-0.9h0.2v0.9H92.9z M188.1,291.2v0.8
			h-0.2v-0.9L188.1,291.2z M100.6,15.2v0.7h-0.2l-0.2-0.7L100.6,15.2z M53.1,178.1h-0.7v-0.2l0.7-0.2L53.1,178.1z M15.8,181.8v0.7
			h-0.2l-0.2-0.7L15.8,181.8z M135.8,78.5l-0.2,0.3c0,0-0.1-0.1-0.1-0.2c0-0.1,0.1-0.2,0.1-0.3L135.8,78.5z M14.5,87.9l-0.2,0.2
			c-0.1-0.1-0.1-0.2-0.1-0.3c0,0,0.1-0.1,0.1-0.2L14.5,87.9z M30.8,87.8c-0.1,0.1-0.2,0.1-0.3,0.1c0,0-0.1-0.1-0.1-0.1
			c0.1-0.1,0.2-0.1,0.3-0.1C30.6,87.7,30.7,87.8,30.8,87.8z M14,100.5l-0.2,0.3c0,0-0.1-0.1-0.1-0.2c0-0.1,0.1-0.2,0.1-0.3L14,100.5
			z M5.2,248.7L5.1,249c-0.1-0.1-0.2-0.1-0.1-0.1c0-0.1,0.1-0.2,0.1-0.3L5.2,248.7z M163.4,106.5l-0.3-0.2c0,0,0.1-0.1,0.1-0.1
			c0.1,0,0.2,0.1,0.3,0.1L163.4,106.5z M134.8,27.8l-0.3-0.2c0.1,0,0.1-0.1,0.1-0.1c0.1,0,0.2,0.1,0.3,0.1L134.8,27.8z M189.4,296.8
			l-0.1,0.2c-0.1-0.1-0.1-0.2-0.1-0.3c0,0,0.1-0.1,0.1-0.1L189.4,296.8z M109,189.9l-0.2,0.2c-0.1-0.1-0.1-0.2-0.1-0.3
			c0,0,0.1-0.1,0.1-0.1L109,189.9z M189.4,294.4l-0.1,0.3c-0.1,0-0.1-0.1-0.1-0.1c0-0.1,0.1-0.2,0.1-0.3L189.4,294.4z M194.7,293.6
			l-0.2,0.2c-0.1-0.1-0.1-0.2-0.1-0.3c0,0,0.1-0.1,0.1-0.1L194.7,293.6z M136.9,31l0.3,0.2c0,0-0.1,0.1-0.1,0.1
			c-0.1,0-0.2-0.1-0.3-0.1L136.9,31z M149.1,44l0.2-0.3c0.1,0,0.1,0.1,0.1,0.1c0,0.1-0.1,0.2-0.1,0.3L149.1,44z M127.3,50.2
			l-0.3-0.2c0,0,0.1-0.1,0.1-0.1c0.1,0,0.2,0.1,0.3,0.1L127.3,50.2z M159.3,67l-0.2-0.2c0.1-0.1,0.2-0.1,0.3-0.1
			c0,0,0.1,0.1,0.1,0.1L159.3,67z M29.4,263.6l-0.1,0.3c0,0-0.1-0.1-0.1-0.1c0-0.1,0.1-0.2,0.1-0.3L29.4,263.6z M69.3,207.1L69,207
			c0,0,0.1-0.1,0.2-0.1c0.1,0,0.2,0.1,0.3,0.1L69.3,207.1z M15.8,222.3l-0.2,0.3c0-0.1-0.1-0.1-0.1-0.1c0-0.1,0.1-0.2,0.1-0.3
			L15.8,222.3z M19.9,219.7l0.2-0.2c0.1,0.1,0.1,0.2,0.1,0.3c0,0-0.1,0.1-0.1,0.1L19.9,219.7z M67.3,170l0.2-0.1
			c0.1,0.1,0.1,0.2,0.1,0.3c0,0-0.1,0.1-0.1,0.1L67.3,170z M25,218.5l-0.2,0.1c-0.1-0.1-0.1-0.2-0.1-0.3c0,0,0.1-0.1,0.1-0.1
			L25,218.5z M65.5,172.2c-0.1,0.1-0.2,0.1-0.3,0.1c0,0-0.1-0.1-0.1-0.1c0.1-0.1,0.2-0.1,0.3-0.1C65.4,172.1,65.5,172.2,65.5,172.2
			L65.5,172.2z M17.5,199.4l-0.1,0.3c0-0.1-0.1-0.1-0.1-0.1c0-0.1,0.1-0.2,0.1-0.3L17.5,199.4z M100.2,108.4l-0.2,0.3
			c0,0-0.1-0.1-0.1-0.1c0-0.1,0.1-0.2,0.1-0.3L100.2,108.4z M25,238.7l-0.2,0.2c-0.1-0.1-0.1-0.2-0.1-0.3c0,0,0.1-0.1,0.1-0.1
			L25,238.7z M29.3,135.2l0.2,0.2c-0.1,0.1-0.2,0.1-0.3,0.1c0,0-0.1-0.1-0.1-0.1L29.3,135.2z M166.3,143.4l-0.1-0.2
			c0.1-0.1,0.2-0.1,0.3-0.1c0,0,0.1,0.1,0.1,0.1L166.3,143.4z M11.1,236.1l0.1-0.3c0,0,0.1,0.1,0.1,0.1c0,0.1-0.1,0.2-0.1,0.3
			L11.1,236.1z M16.6,153.9l-0.3-0.2c0-0.1,0.1-0.1,0.1-0.1c0.1,0,0.2,0.1,0.3,0.1L16.6,153.9z M49,204.1c0.1,0.1,0.1,0.2,0.1,0.3
			c0,0-0.1,0.1-0.1,0.1c-0.1-0.1-0.1-0.2-0.1-0.3C48.9,204.3,49,204.2,49,204.1z M11.6,231.4l0.3,0.1c-0.1,0-0.1,0.1-0.1,0.1
			c-0.1,0-0.2-0.1-0.3-0.1L11.6,231.4z M12.2,230.4l-0.3-0.2c0,0,0.1-0.1,0.1-0.1c0.1,0,0.2,0.1,0.3,0.1L12.2,230.4z"/>
	</g>
</g>
</svg>
